HIERARCHY
ROOT ui
{
	 OFFSET 0 0 0
	 CHANNELS 3 XPosition YPosition Z Position
	 EndSite
	 {
	 OFFSET 0 -1 0
	 }
}
ROOT li
{
	 OFFSET 0 0 0
	 CHANNELS 3 XPosition YPosition Z Position
	 EndSite
	 {
	 OFFSET 0 -1 0
	 }
}
ROOT ul
{
	 OFFSET 0 0 0
	 CHANNELS 3 XPosition YPosition Z Position
	 EndSite
	 {
	 OFFSET 0 -1 0
	 }
}
ROOT ll
{
	 OFFSET 0 0 0
	 CHANNELS 3 XPosition YPosition Z Position
	 EndSite
	 {
	 OFFSET 0 -1 0
	 }
}
ROOT tt
{
	 OFFSET 0 0 0
	 CHANNELS 3 XPosition YPosition Z Position
	 EndSite
	 {
	 OFFSET 0 -1 0
	 }
}
ROOT tb
{
	 OFFSET 0 0 0
	 CHANNELS 3 XPosition YPosition Z Position
	 EndSite
	 {
	 OFFSET 0 -1 0
	 }
}
ROOT td
{
	 OFFSET 0 0 0
	 CHANNELS 3 XPosition YPosition Z Position
	 EndSite
	 {
	 OFFSET 0 -1 0
	 }
}
ROOT v
{
	 OFFSET 0 0 0
	 CHANNELS 3 XPosition YPosition Z Position
	 EndSite
	 {
	 OFFSET 0 -1 0
	 }
}
ROOT bn
{
	 OFFSET 0 0 0
	 CHANNELS 3 XPosition YPosition Z Position
	 EndSite
	 {
	 OFFSET 0 -1 0
	 }
}
MOTION
Frames: 13
Frame Time: 0.002
0.01558273983001709	-6.790980100631714E-4	0		0.5897647094726562	-2.55890966796875	0		-0.9479022216796875	0.09586978912353515	0		-0.6728343505859375	-2.64125390625	0		2.6408974609375	-1.752990966796875	0		3.918031982421875	-0.823771484375	0		5.17989990234375	-0.2013351287841797	0		5.9750546875	0.5001222839355469	0		-0.042648754119873046	5.9882021484375	0		
-0.02783930206298828	0.002659930944442749	0		0.524444580078125	-2.545210205078125	0		-0.9615494384765625	0.08572261047363282	0		-0.6764410400390625	-2.644581787109375	0		2.642452880859375	-1.7485009765625	0		3.92468212890625	-0.8154044799804687	0		5.17119189453125	-0.21474314880371093	0		5.962470703125	0.49275936889648436	0		-0.040974834442138675	5.98677001953125	0		
0.007546297073364258	-0.0063823599815368654	0		0.5737445678710937	-2.5555078125	0		-0.9738274536132813	0.0965281982421875	0		-0.676964111328125	-2.64398876953125	0		2.613129638671875	-1.73749658203125	0		3.922931396484375	-0.8309117431640625	0		5.1755419921875	-0.2253868865966797	0		5.9707353515625	0.47602703857421874	0		-0.07535411071777344	5.9829326171875	0		
-0.018901567459106445	-0.005387052059173584	0		0.5312223510742188	-2.555249755859375	0		-0.962450927734375	0.08689278411865234	0		-0.6557564697265625	-2.659802490234375	0		2.61468896484375	-1.734045166015625	0		3.94387109375	-0.806821533203125	0		5.1891865234375	-0.2192025909423828	0		5.96643310546875	0.4845028076171875	0		-0.09357726287841797	5.988791015625	0		
0.01069252109527588	-0.0023879730701446534	0		0.5587129516601562	-2.555226806640625	0		-0.9478527221679688	0.09017000579833985	0		-0.6979641723632812	-2.6415498046875	0		2.623440673828125	-1.719739013671875	0		3.930920166015625	-0.8341737670898437	0		5.18872900390625	-0.21879148864746092	0		5.965990234375	0.48489804077148435	0		-0.04191598892211914	5.98841259765625	0		
-0.015743837356567383	-4.536530077457428E-4	0		0.560245849609375	-2.552785888671875	0		-0.9701153564453125	0.10205018615722657	0		-0.6157212524414063	-2.656484375	0		2.622953857421875	-1.719298583984375	0		3.957703369140625	-0.8192245483398437	0		5.18416455078125	-0.2243251495361328	0		5.9614033203125	0.47735134887695313	0		-0.042270599365234376	5.9888984375	0		
0.005719999790191651	-0.004379639148712158	0		0.5727797241210938	-2.550565185546875	0		-0.9756460571289063	0.09860415649414063	0		-0.6630242309570312	-2.644211181640625	0		2.608762451171875	-1.7016414794921875	0		3.915182861328125	-0.8210986328125	0		5.18369775390625	-0.22394276428222656	0		5.9647900390625	0.4686552429199219	0		-0.042652050018310544	5.9893525390625	0		
-0.03058953094482422	0.005663591861724854	0		0.546321533203125	-2.54769970703125	0		-0.9761156005859375	0.09903594970703125	0		-0.6055132446289062	-2.643786376953125	0		2.620341796875	-1.69745458984375	0		3.914703857421875	-0.8207169189453125	0		5.18389599609375	-0.24258847045898438	0		5.95217041015625	0.46022494506835937	0		-0.07517765045166015	5.98332958984375	0		
0.001704640030860901	-0.007515068054199219	0		0.5287269897460938	-2.553017822265625	0		-0.9647657470703125	0.08922673034667969	0		-0.6890985717773438	-2.647954345703125	0		2.583188720703125	-1.677444580078125	0		3.935855712890625	-0.8417308349609375	0		5.18926171875	-0.25133586120605467	0		5.94783642578125	0.4686428527832031	0		-0.061424613952636715	5.9944765625	0		
-0.014579422950744629	0.004119595050811767	0		0.5323272705078125	-2.547730224609375	0		-0.9611736450195313	0.0935195541381836	0		-0.6475389404296875	-2.6453203125	0		2.580966064453125	-1.662061767578125	0		3.916828857421875	-0.81506005859375	0		5.18706103515625	-0.23496221923828126	0		5.95222216796875	0.46089630126953124	0		-0.060898242950439455	5.99381884765625	0		
0.007876973152160644	5.101300030946732E-5	0		0.54999169921875	-2.53971435546875	0		-0.9775382690429687	0.1001247787475586	0		-0.66972998046875	-2.62861279296875	0		2.564051513671875	-1.6294437255859375	0		3.906151611328125	-0.8265568237304688	0		5.19834619140625	-0.24883976745605468	0		5.94761328125	0.4532947082519531	0		-0.07752152252197266	5.98542626953125	0		
0.007420008182525635	3.5026800632476806E-4	0		0.5464564819335938	-2.544360595703125	0		-0.9779955444335937	0.1004209976196289	0		-0.6633876342773437	-2.640434814453125	0		2.545104248046875	-1.5998121337890625	0		3.898836669921875	-0.8181256103515625	0		5.1796328125	-0.26321075439453123	0		5.94299951171875	0.44468280029296875	0		-0.07527427673339844	5.96967578125	0		
0.0029333250522613524	-0.0023100550174713136	0		0.5440029296875	-2.54605224609375	0		-0.9825001831054687	0.09675457000732422	0		-0.6746661987304687	-2.63197998046875	0		2.544990478515625	-1.5815286865234375	0		3.898406494140625	-0.8178309326171875	0		5.1850771484375	-0.27001065063476565	0		5.938423828125	0.4370609130859375	0		-0.04438885498046875	5.99040576171875	0		
